<svg aria-hidden="true" style="position: absolute; width: 0; height: 0; overflow: hidden;" version="1.1" xmlns="http://www.w3.org/2000/svg" xmlns:xlink="http://www.w3.org/1999/xlink">
<defs>
<symbol id="icon-facebook" viewBox="0 0 17 32">
<path   d="M15.467 17.474l0.829-5.447h-5.27v-3.553c0-1.539 0.711-2.961 3.079-2.961h2.428v-4.678c0 0-2.191-0.414-4.263-0.414-4.322 0-7.164 2.664-7.164 7.401v4.204h-4.855v5.447h4.855v13.263h5.921v-13.263h4.441z"></path>
</symbol>
<symbol id="icon-github" viewBox="0 0 32 32">
<path   d="M16 1c-8.472 0-15.333 6.862-15.333 15.333 0 6.785 4.389 12.516 10.484 14.548 0.767 0.134 1.054-0.326 1.054-0.728 0-0.364-0.019-1.572-0.019-2.856-3.853 0.709-4.849-0.939-5.156-1.802-0.172-0.441-0.92-1.802-1.572-2.166-0.537-0.287-1.303-0.997-0.019-1.016 1.208-0.019 2.070 1.112 2.358 1.572 1.38 2.319 3.584 1.667 4.466 1.265 0.134-0.997 0.537-1.668 0.977-2.051-3.412-0.383-6.977-1.706-6.977-7.571 0-1.667 0.594-3.047 1.572-4.121-0.153-0.383-0.69-1.955 0.153-4.063 0 0 1.284-0.402 4.217 1.572 1.227-0.345 2.53-0.518 3.833-0.518s2.607 0.173 3.833 0.518c2.932-1.993 4.217-1.572 4.217-1.572 0.843 2.108 0.307 3.68 0.153 4.063 0.977 1.073 1.572 2.434 1.572 4.121 0 5.884-3.584 7.188-6.996 7.571 0.556 0.479 1.035 1.399 1.035 2.837 0 2.051-0.019 3.699-0.019 4.217 0 0.403 0.288 0.882 1.054 0.728 6.057-2.032 10.446-7.782 10.446-14.548 0-8.472-6.862-15.333-15.333-15.333z"></path>
</symbol>
<symbol id="icon-instagram" viewBox="0 0 30 32">
<path   d="M15.059 7.919c-4.235 0-7.61 3.441-7.61 7.61 0 4.235 3.375 7.61 7.61 7.61 4.169 0 7.61-3.375 7.61-7.61 0-4.169-3.441-7.61-7.61-7.61zM15.059 20.493c-2.713 0-4.963-2.184-4.963-4.963 0-2.713 2.184-4.897 4.963-4.897 2.713 0 4.897 2.184 4.897 4.897 0 2.779-2.184 4.963-4.897 4.963zM24.721 7.654c0-0.993-0.794-1.787-1.787-1.787s-1.787 0.794-1.787 1.787 0.794 1.787 1.787 1.787c0.993 0 1.787-0.794 1.787-1.787zM29.75 9.441c-0.132-2.382-0.662-4.5-2.382-6.221s-3.838-2.25-6.221-2.382c-2.449-0.132-9.794-0.132-12.243 0-2.382 0.132-4.434 0.662-6.221 2.382-1.721 1.721-2.25 3.838-2.382 6.221-0.132 2.449-0.132 9.794 0 12.243 0.132 2.383 0.662 4.434 2.382 6.221 1.787 1.721 3.838 2.25 6.221 2.382 2.449 0.133 9.794 0.133 12.243 0 2.382-0.132 4.5-0.662 6.221-2.382 1.72-1.787 2.25-3.838 2.382-6.221 0.132-2.448 0.132-9.794 0-12.243zM26.574 24.265c-0.463 1.324-1.522 2.316-2.779 2.846-1.985 0.794-6.618 0.596-8.735 0.596-2.184 0-6.816 0.198-8.735-0.596-1.324-0.529-2.316-1.522-2.846-2.846-0.794-1.919-0.596-6.551-0.596-8.735 0-2.118-0.199-6.75 0.596-8.735 0.529-1.257 1.522-2.25 2.846-2.779 1.919-0.794 6.551-0.596 8.735-0.596 2.118 0 6.75-0.199 8.735 0.596 1.257 0.463 2.25 1.522 2.779 2.779 0.794 1.985 0.596 6.618 0.596 8.735 0 2.184 0.199 6.816-0.596 8.735z"></path>
</symbol>
</defs>
</svg>